<svg id="a8c591ae-183c-4f91-9ba9-822b85008847" data-name="Layer 1" xmlns="http://www.w3.org/2000/svg" width="865.76" height="682.89" viewBox="0 0 865.76 682.89"><path d="M758.56,460.13H107.2l14.62-86.41V47.1a20.38,20.38,0,0,1,20.41-20.37H726A20.36,20.36,0,0,1,746.37,47.1V373.72Z" fill="#ccc"/><path d="M107.2,460.13l3.34,178.45a17.92,17.92,0,0,0,17.91,17.58H734a17.92,17.92,0,0,0,17.91-17.25l6.66-178.78Z" fill="#0071f2"/><rect x="151.04" y="486.02" width="561.56" height="29.22" rx="3.43" fill="#e0e0e0"/><rect x="151.04" y="539.89" width="561.56" height="74.87" rx="4.39" fill="#2f2e41"/><rect x="119.86" y="374.01" width="627.7" height="4.26" fill="#2f2e41"/><circle cx="175.7" cy="326.4" r="37.53" fill="#fff"/><path d="M175.69,366.06a39.66,39.66,0,1,1,39.67-39.66A39.7,39.7,0,0,1,175.69,366.06Zm0-75.05a35.4,35.4,0,1,0,35.4,35.39A35.44,35.44,0,0,0,175.69,291Z" fill="#2f2e41"/><circle cx="175.7" cy="326.4" r="28.4" fill="#0071f2"/><circle cx="569.5" cy="307.71" r="25.77" fill="#fff"/><path d="M569.5,335.61a27.9,27.9,0,1,1,27.9-27.9A27.93,27.93,0,0,1,569.5,335.61Zm0-51.53a23.64,23.64,0,1,0,23.64,23.63A23.66,23.66,0,0,0,569.5,284.08Z" fill="#2f2e41"/><path d="M569.5,327.75a20,20,0,1,1,20-20A20.06,20.06,0,0,1,569.5,327.75Zm0-39a19,19,0,1,0,19,19A19,19,0,0,0,569.5,288.75Z" fill="#2f2e41"/><rect x="141.91" y="69.64" width="95.88" height="187.19" rx="11.21" fill="#fff"/><path d="M224.55,259h-69.4a15.39,15.39,0,0,1-15.37-15.37V82.88a15.39,15.39,0,0,1,15.37-15.37h69.4a15.39,15.39,0,0,1,15.37,15.37V243.59A15.39,15.39,0,0,1,224.55,259ZM155.15,71.77A11.13,11.13,0,0,0,144,82.88V243.59a11.13,11.13,0,0,0,11.11,11.11h69.4a11.13,11.13,0,0,0,11.11-11.11V82.88a11.13,11.13,0,0,0-11.11-11.11Z" fill="#2f2e41"/><rect x="603.03" y="69.64" width="119.62" height="117.18" rx="3.11" fill="#2f2e41"/><path d="M701.68,180.32H624A14.33,14.33,0,0,1,609.69,166V90.45A14.32,14.32,0,0,1,624,76.15h77.68A14.32,14.32,0,0,1,716,90.45V166A14.33,14.33,0,0,1,701.68,180.32ZM624,78.28a12.19,12.19,0,0,0-12.18,12.17V166A12.19,12.19,0,0,0,624,178.19h77.68A12.2,12.2,0,0,0,713.86,166V90.45a12.19,12.19,0,0,0-12.18-12.17Z" fill="#e0e0e0"/><path d="M698.62,171.42H627.06a8.3,8.3,0,0,1-8.29-8.28V93.33a8.29,8.29,0,0,1,8.29-8.28h71.56a8.28,8.28,0,0,1,8.28,8.28v69.81A8.29,8.29,0,0,1,698.62,171.42ZM627.06,87.18a6.15,6.15,0,0,0-6.15,6.15v69.81a6.15,6.15,0,0,0,6.15,6.15h71.56a6.16,6.16,0,0,0,6.15-6.15V93.33a6.16,6.16,0,0,0-6.15-6.15Z" fill="#e0e0e0"/><path d="M676.37,148.77H649.3a7.44,7.44,0,0,1-7.43-7.42V115.12a7.45,7.45,0,0,1,7.43-7.43h27.07a7.44,7.44,0,0,1,7.43,7.43v26.23A7.43,7.43,0,0,1,676.37,148.77ZM649.3,108.12a7,7,0,0,0-7,7v26.23a7,7,0,0,0,7,7h27.07a7,7,0,0,0,7-7V115.12a7,7,0,0,0-7-7Z" fill="#e0e0e0"/><g opacity="0.5"><rect x="628.6" y="198.24" width="69.4" height="25.72" rx="12.86" fill="#fff"/><path d="M685.13,225H641.46a13.93,13.93,0,1,1,0-27.85h43.67a13.93,13.93,0,1,1,0,27.85ZM641.46,199.3a11.8,11.8,0,1,0,0,23.59h43.67a11.8,11.8,0,1,0,0-23.59Z" fill="#3f3d56"/></g><rect x="375.67" y="314.38" width="21.91" height="145.75" fill="#0071f2"/><rect x="397.58" y="314.38" width="21.91" height="145.75" fill="#d1d3d4"/><rect x="419.49" y="314.38" width="21.91" height="145.75" fill="#bcbec0"/><rect x="441.39" y="314.38" width="21.91" height="145.75" fill="#2f2e41"/><rect x="463.3" y="314.38" width="21.91" height="145.75" fill="#fff"/><rect x="180.8" y="83.68" width="18.1" height="74.72" rx="0.89" fill="#ccc"/><rect x="180.8" y="163.24" width="18.1" height="18.1" rx="0.44" fill="#ccc"/><rect x="180.8" y="186.17" width="18.1" height="61.23" rx="0.65" fill="#ccc"/><circle cx="431.79" cy="186.82" r="141.1" fill="#fff"/><path d="M431.8,330.06c-79,0-143.24-64.26-143.24-143.24S352.82,43.59,431.8,43.59,575,107.85,575,186.82,510.77,330.06,431.8,330.06Zm0-282.21c-76.63,0-139,62.34-139,139s62.34,139,139,139,139-62.34,139-139S508.42,47.85,431.8,47.85Z" fill="#2f2e41"/><circle cx="431.79" cy="186.82" r="127.56" fill="#2f2e41"/><g opacity="0.33"><circle cx="431.79" cy="186.82" r="93.03" fill="#fff"/></g><path d="M431.8,303.88A117.06,117.06,0,1,1,548.85,186.82,117.2,117.2,0,0,1,431.8,303.88Zm0-233a116,116,0,1,0,116,116A116.13,116.13,0,0,0,431.8,70.83Z" fill="#fff"/><path d="M430.44,290.5A103.68,103.68,0,1,1,534.12,186.82,103.79,103.79,0,0,1,430.44,290.5Zm0-206.29A102.61,102.61,0,1,0,533.05,186.82,102.73,102.73,0,0,0,430.44,84.21Z" fill="#fff"/><path d="M431.8,254.74a67.92,67.92,0,1,1,67.91-67.92A68,68,0,0,1,431.8,254.74Zm0-131.57a63.65,63.65,0,1,0,63.65,63.65A63.73,63.73,0,0,0,431.8,123.17Z" fill="#2f2e41"/><g opacity="0"><circle cx="431.79" cy="186.82" r="51.55" fill="#fff"/></g><circle cx="662.84" cy="211.1" r="11.6" fill="#ccc"/></svg>